<svg width="55" height="54" viewBox="0 0 55 54" fill="none" xmlns="http://www.w3.org/2000/svg">
<path d="M0.666748 8C0.666748 3.58172 4.24847 0 8.66675 0H46.6667C51.085 0 54.6667 3.58172 54.6667 8V46C54.6667 50.4183 51.085 54 46.6667 54H8.66675C4.24847 54 0.666748 50.4183 0.666748 46V8Z" fill="#BEF264"/>
<path d="M28 15.333V38.6663M33.8333 18.833H25.0833C24.0004 18.833 22.9618 19.2632 22.196 20.029C21.4302 20.7948 21 21.8334 21 22.9163C21 23.9993 21.4302 25.0379 22.196 25.8037C22.9618 26.5695 24.0004 26.9997 25.0833 26.9997H30.9167C31.9996 26.9997 33.0382 27.4299 33.804 28.1957C34.5698 28.9614 35 30 35 31.083C35 32.166 34.5698 33.2046 33.804 33.9704C33.0382 34.7361 31.9996 35.1663 30.9167 35.1663H21" stroke="black" stroke-width="2" stroke-linecap="round" stroke-linejoin="round"/>
</svg>
