<svg width="54" height="54" viewBox="0 0 54 54" fill="none" xmlns="http://www.w3.org/2000/svg">
<path d="M0 8C0 3.58172 3.58172 0 8 0H46C50.4183 0 54 3.58172 54 8V46C54 50.4183 50.4183 54 46 54H8C3.58172 54 0 50.4183 0 46V8Z" fill="#BEF264"/>
<path d="M23.0217 28.7613L30.99 33.4047M30.9783 20.5947L23.0217 25.238M37.5 18.833C37.5 20.766 35.933 22.333 34 22.333C32.067 22.333 30.5 20.766 30.5 18.833C30.5 16.9 32.067 15.333 34 15.333C35.933 15.333 37.5 16.9 37.5 18.833ZM23.5 26.9997C23.5 28.9327 21.933 30.4997 20 30.4997C18.067 30.4997 16.5 28.9327 16.5 26.9997C16.5 25.0667 18.067 23.4997 20 23.4997C21.933 23.4997 23.5 25.0667 23.5 26.9997ZM37.5 35.1663C37.5 37.0993 35.933 38.6663 34 38.6663C32.067 38.6663 30.5 37.0993 30.5 35.1663C30.5 33.2333 32.067 31.6663 34 31.6663C35.933 31.6663 37.5 33.2333 37.5 35.1663Z" stroke="black" stroke-width="2" stroke-linecap="round" stroke-linejoin="round"/>
</svg>
