<svg width="55" height="54" viewBox="0 0 55 54" fill="none" xmlns="http://www.w3.org/2000/svg">
<path d="M0.333328 8C0.333328 3.58172 3.91505 0 8.33333 0H46.3333C50.7516 0 54.3333 3.58172 54.3333 8V46C54.3333 50.4183 50.7516 54 46.3333 54H8.33333C3.91505 54 0.333328 50.4183 0.333328 46V8Z" fill="#BEF264"/>
<path d="M30.5 16.5H35.1667C35.7855 16.5 36.379 16.7458 36.8166 17.1834C37.2542 17.621 37.5 18.2145 37.5 18.8333V35.1667C37.5 35.7855 37.2542 36.379 36.8166 36.8166C36.379 37.2542 35.7855 37.5 35.1667 37.5H30.5M24.6667 32.8333L30.5 27M30.5 27L24.6667 21.1667M30.5 27H16.5" stroke="black" stroke-width="2" stroke-linecap="round" stroke-linejoin="round"/>
</svg>
